<svg xmlns="http://www.w3.org/2000/svg" version="1.1" xmlns:xlink="http://www.w3.org/1999/xlink" xmlns:svgjs="http://svgjs.dev/svgjs" viewBox="0 0 22.427014428285297 4.83627873032705"><g transform="matrix(0.6803783293307542,0,0,0.6803783293307542,7.427607311484797,2.0022581113601015)"><g transform="matrix(1,0,0,1,0,0)" clip-path="url(#SvgjsClipPath6529)"><g clip-path="url(#SvgjsClipPath652769750651-cb46-4658-a50e-0c702c105f2d)"><path d=" M -1.1946590072339096 0.9573388320568276 L -1.4574444645612843 0.5805374782071709 L -2.2181376768712924 1.893416476688048 L -1.423491575953193 1.337445205509416 L -1.1607206781835409 1.7142465593590726 L -0.3999983467580881 0.4013675608781958 Z" fill="url(#gradient-6dfbf494-b272-47a5-831d-4d630dea9d20_0)" transform="matrix(1,0,0,1,0,0)" fill-rule="nonzero"></path></g><g clip-path="url(#SvgjsClipPath652769750651-cb46-4658-a50e-0c702c105f2d)"><path d=" M -3.752412064568639 1.7142375319375307 L -3.4896411667989864 1.3374361780878736 L -2.694980506323165 1.8934220088242282 L -3.4556882781908955 0.580543010343351 L -3.7184737355182698 0.9573298046352853 L -4.513134395994092 0.40135853345665373 Z" fill="url(#gradient-6dfbf494-b272-47a5-831d-4d630dea9d20_1)" transform="matrix(1,0,0,1,0,0)" fill-rule="nonzero"></path></g><g clip-path="url(#SvgjsClipPath652769750651-cb46-4658-a50e-0c702c105f2d)"><path d=" M -2.35985604495259 -0.6709188168880101 L -2.8518526195000238 0.43878155358004 L -2.48441306126572 0.43167648941162307 L -2.4705814814296625 1.2074097248486289 L -1.978584906882228 0.09772391393830071 L -2.3460244651165323 0.10484353766443999 Z" fill="url(#gradient-6dfbf494-b272-47a5-831d-4d630dea9d20_2)" transform="matrix(1,0,0,1,0,0)" fill-rule="nonzero"></path></g></g><g><path d=" M 0.79425 0.2317499999999999 Q 0.9195 0.2984999999999999 0.987 0.41849999999999987 Q 1.0545 0.5384999999999999 1.0545 0.693 Q 1.0545 0.8459999999999999 0.9862500000000001 0.966 Q 0.918 1.0859999999999999 0.7927500000000001 1.15425 Q 0.6675 1.2225 0.5025000000000001 1.2225 L 0.084 1.2225 L 0.084 0.1649999999999998 L 0.5025000000000001 0.1649999999999998 Q 0.669 0.1649999999999998 0.79425 0.2317499999999999 M 0.6825 0.8924999999999998 Q 0.756 0.8219999999999998 0.756 0.693 Q 0.756 0.5624999999999999 0.6825 0.49124999999999985 Q 0.609 0.41999999999999993 0.48 0.41999999999999993 L 0.378 0.41999999999999993 L 0.378 0.9629999999999999 L 0.48 0.9629999999999999 Q 0.609 0.9629999999999999 0.6825 0.8924999999999998 M 1.2082280273437502 0.26024999999999987 Q 1.1609780273437502 0.2174999999999998 1.1609780273437502 0.1529999999999998 Q 1.1609780273437502 0.08699999999999997 1.2082280273437502 0.04349999999999987 Q 1.2554780273437502 0 1.33347802734375 0 Q 1.40997802734375 0 1.4572280273437501 0.04349999999999987 Q 1.5044780273437501 0.08699999999999997 1.5044780273437501 0.1529999999999998 Q 1.5044780273437501 0.2174999999999998 1.4572280273437501 0.26024999999999987 Q 1.40997802734375 0.30299999999999994 1.33347802734375 0.30299999999999994 Q 1.2554780273437502 0.30299999999999994 1.2082280273437502 0.26024999999999987 M 1.47897802734375 0.3809999999999999 L 1.47897802734375 1.2225 L 1.1849780273437502 1.2225 L 1.1849780273437502 0.3809999999999999 L 1.47897802734375 0.3809999999999999 M 1.800703125 1.19475 Q 1.711453125 1.1564999999999999 1.659703125 1.08975 Q 1.607953125 1.023 1.601953125 0.9389999999999998 L 1.8869531250000002 0.9389999999999998 Q 1.892953125 0.9794999999999999 1.924453125 1.002 Q 1.9559531250000002 1.0245 2.002453125 1.0245 Q 2.038453125 1.0245 2.059453125 1.0094999999999998 Q 2.080453125 0.9944999999999999 2.080453125 0.9704999999999999 Q 2.080453125 0.9389999999999998 2.045953125 0.9239999999999999 Q 2.011453125 0.9089999999999999 1.9319531250000002 0.8909999999999999 Q 1.841953125 0.8729999999999999 1.781953125 0.8504999999999999 Q 1.7219531250000002 0.8279999999999998 1.677703125 0.7769999999999999 Q 1.6334531250000002 0.726 1.6334531250000002 0.6389999999999999 Q 1.6334531250000002 0.564 1.6739531250000002 0.5032499999999999 Q 1.7144531250000001 0.4424999999999999 1.7932031250000002 0.40649999999999986 Q 1.871953125 0.37049999999999994 1.982953125 0.37049999999999994 Q 2.147953125 0.37049999999999994 2.242453125 0.4514999999999999 Q 2.336953125 0.5324999999999999 2.351953125 0.6644999999999999 L 2.0864531250000002 0.6644999999999999 Q 2.078953125 0.6239999999999999 2.0512031250000002 0.60225 Q 2.023453125 0.5804999999999999 1.976953125 0.5804999999999999 Q 1.940953125 0.5804999999999999 1.9222031250000002 0.5939999999999999 Q 1.9034531250000002 0.6074999999999999 1.9034531250000002 0.6315 Q 1.9034531250000002 0.6614999999999999 1.9379531250000002 0.6772499999999999 Q 1.9724531250000001 0.693 2.048953125 0.7094999999999999 Q 2.140453125 0.7289999999999999 2.201203125 0.7529999999999999 Q 2.2619531250000002 0.7769999999999999 2.307703125 0.8302499999999999 Q 2.353453125 0.8835 2.353453125 0.9749999999999999 Q 2.353453125 1.0485 2.310703125 1.107 Q 2.267953125 1.1655 2.189203125 1.19925 Q 2.1104531250000003 1.2329999999999999 2.0039531250000002 1.2329999999999999 Q 1.8899531250000001 1.2329999999999999 1.800703125 1.19475 M 2.49519287109375 0.573 Q 2.54244287109375 0.4754999999999999 2.62419287109375 0.42299999999999993 Q 2.70594287109375 0.37049999999999994 2.8064428710937497 0.37049999999999994 Q 2.89344287109375 0.37049999999999994 2.95644287109375 0.4049999999999999 Q 3.0194428710937498 0.4394999999999999 3.0539428710937497 0.4979999999999999 L 3.0539428710937497 0.3809999999999999 L 3.3479428710937498 0.3809999999999999 L 3.3479428710937498 1.2225 L 3.0539428710937497 1.2225 L 3.0539428710937497 1.1055 Q 3.0194428710937498 1.164 2.95569287109375 1.1985 Q 2.89194287109375 1.2329999999999999 2.8064428710937497 1.2329999999999999 Q 2.70594287109375 1.2329999999999999 2.62419287109375 1.1804999999999999 Q 2.54244287109375 1.128 2.49519287109375 1.02975 Q 2.44794287109375 0.9315 2.44794287109375 0.8009999999999999 Q 2.44794287109375 0.6704999999999999 2.49519287109375 0.573 M 3.00969287109375 0.6734999999999999 Q 2.96544287109375 0.6269999999999999 2.9009428710937497 0.6269999999999999 Q 2.83494287109375 0.6269999999999999 2.79144287109375 0.67275 Q 2.7479428710937497 0.7184999999999999 2.7479428710937497 0.8009999999999999 Q 2.7479428710937497 0.8819999999999999 2.79144287109375 0.9292499999999999 Q 2.83494287109375 0.9764999999999999 2.9009428710937497 0.9764999999999999 Q 2.96544287109375 0.9764999999999999 3.00969287109375 0.9299999999999999 Q 3.0539428710937497 0.8835 3.0539428710937497 0.8009999999999999 Q 3.0539428710937497 0.7199999999999999 3.00969287109375 0.6734999999999999 M 3.669681884765625 1.19475 Q 3.5804318847656247 1.1564999999999999 3.528681884765625 1.08975 Q 3.4769318847656248 1.023 3.470931884765625 0.9389999999999998 L 3.7559318847656247 0.9389999999999998 Q 3.761931884765625 0.9794999999999999 3.7934318847656248 1.002 Q 3.8249318847656246 1.0245 3.8714318847656246 1.0245 Q 3.9074318847656246 1.0245 3.928431884765625 1.0094999999999998 Q 3.949431884765625 0.9944999999999999 3.949431884765625 0.9704999999999999 Q 3.949431884765625 0.9389999999999998 3.914931884765625 0.9239999999999999 Q 3.880431884765625 0.9089999999999999 3.8009318847656246 0.8909999999999999 Q 3.7109318847656247 0.8729999999999999 3.6509318847656247 0.8504999999999999 Q 3.5909318847656246 0.8279999999999998 3.5466818847656247 0.7769999999999999 Q 3.502431884765625 0.726 3.502431884765625 0.6389999999999999 Q 3.502431884765625 0.564 3.5429318847656246 0.5032499999999999 Q 3.583431884765625 0.4424999999999999 3.6621818847656247 0.40649999999999986 Q 3.740931884765625 0.37049999999999994 3.8519318847656248 0.37049999999999994 Q 4.016931884765625 0.37049999999999994 4.111431884765625 0.4514999999999999 Q 4.205931884765625 0.5324999999999999 4.2209318847656245 0.6644999999999999 L 3.9554318847656247 0.6644999999999999 Q 3.947931884765625 0.6239999999999999 3.9201818847656247 0.60225 Q 3.892431884765625 0.5804999999999999 3.845931884765625 0.5804999999999999 Q 3.809931884765625 0.5804999999999999 3.7911818847656247 0.5939999999999999 Q 3.772431884765625 0.6074999999999999 3.772431884765625 0.6315 Q 3.772431884765625 0.6614999999999999 3.806931884765625 0.6772499999999999 Q 3.841431884765625 0.693 3.9179318847656246 0.7094999999999999 Q 4.0094318847656245 0.7289999999999999 4.070181884765625 0.7529999999999999 Q 4.130931884765625 0.7769999999999999 4.176681884765625 0.8302499999999999 Q 4.222431884765625 0.8835 4.222431884765625 0.9749999999999999 Q 4.222431884765625 1.0485 4.179681884765625 1.107 Q 4.136931884765625 1.1655 4.058181884765625 1.19925 Q 3.9794318847656247 1.2329999999999999 3.8729318847656247 1.2329999999999999 Q 3.758931884765625 1.2329999999999999 3.669681884765625 1.19475 M 4.8614216308593745 0.972 L 4.8614216308593745 1.2225 L 4.733921630859375 1.2225 Q 4.411421630859374 1.2225 4.411421630859374 0.9029999999999999 L 4.411421630859374 0.6255 L 4.307921630859375 0.6255 L 4.307921630859375 0.3809999999999999 L 4.411421630859374 0.3809999999999999 L 4.411421630859374 0.17699999999999982 L 4.706921630859375 0.17699999999999982 L 4.706921630859375 0.3809999999999999 L 4.8599216308593745 0.3809999999999999 L 4.8599216308593745 0.6255 L 4.706921630859375 0.6255 L 4.706921630859375 0.9075 Q 4.706921630859375 0.942 4.722671630859375 0.9569999999999999 Q 4.738421630859374 0.972 4.775921630859375 0.972 L 4.8614216308593745 0.972 M 5.794452392578124 0.861 L 5.237952392578125 0.861 Q 5.242452392578125 0.9299999999999999 5.276202392578124 0.9637499999999999 Q 5.309952392578125 0.9974999999999999 5.362452392578125 0.9974999999999999 Q 5.435952392578125 0.9974999999999999 5.467452392578124 0.9315 L 5.780952392578125 0.9315 Q 5.761452392578125 1.0185 5.705202392578125 1.0867499999999999 Q 5.648952392578124 1.1549999999999998 5.5634523925781245 1.194 Q 5.477952392578125 1.2329999999999999 5.3744523925781245 1.2329999999999999 Q 5.249952392578125 1.2329999999999999 5.153202392578125 1.1804999999999999 Q 5.056452392578125 1.128 5.0017023925781245 1.0305 Q 4.946952392578124 0.9329999999999999 4.946952392578124 0.8009999999999999 Q 4.946952392578124 0.6689999999999999 5.0009523925781245 0.5722499999999999 Q 5.054952392578125 0.4754999999999999 5.151702392578125 0.42299999999999993 Q 5.248452392578125 0.37049999999999994 5.3744523925781245 0.37049999999999994 Q 5.498952392578125 0.37049999999999994 5.594952392578125 0.4214999999999999 Q 5.690952392578125 0.4724999999999999 5.744952392578124 0.5677499999999999 Q 5.798952392578125 0.6629999999999999 5.798952392578125 0.7919999999999999 Q 5.798952392578125 0.8264999999999999 5.794452392578124 0.861 M 5.498952392578125 0.7184999999999999 Q 5.498952392578125 0.6644999999999999 5.462952392578124 0.6337499999999999 Q 5.426952392578125 0.6029999999999999 5.372952392578124 0.6029999999999999 Q 5.318952392578125 0.6029999999999999 5.284452392578125 0.6322499999999999 Q 5.249952392578125 0.6614999999999999 5.239452392578125 0.7184999999999999 L 5.498952392578125 0.7184999999999999 M 6.331494140625 0.41549999999999987 Q 6.401994140625 0.37349999999999994 6.482994140624999 0.37349999999999994 L 6.482994140624999 0.6869999999999999 L 6.400494140625 0.6869999999999999 Q 6.304494140625 0.6869999999999999 6.257994140625 0.7244999999999999 Q 6.211494140625 0.7619999999999999 6.211494140625 0.855 L 6.211494140625 1.2225 L 5.917494140624999 1.2225 L 5.917494140624999 0.3809999999999999 L 6.211494140625 0.3809999999999999 L 6.211494140625 0.5294999999999999 Q 6.260994140625 0.4574999999999999 6.331494140625 0.41549999999999987 M 7.662744873046875 0.6922499999999999 Q 7.618494873046875 0.7709999999999999 7.529244873046874 0.8182499999999999 Q 7.439994873046874 0.8654999999999999 7.310994873046875 0.8654999999999999 L 7.165494873046875 0.8654999999999999 L 7.165494873046875 1.2225 L 6.871494873046874 1.2225 L 6.871494873046874 0.1649999999999998 L 7.310994873046875 0.1649999999999998 Q 7.438494873046874 0.1649999999999998 7.527744873046874 0.20999999999999996 Q 7.616994873046875 0.2549999999999999 7.661994873046875 0.3344999999999999 Q 7.706994873046875 0.4139999999999999 7.706994873046875 0.5175 Q 7.706994873046875 0.6134999999999999 7.662744873046875 0.6922499999999999 M 7.406994873046875 0.5175 Q 7.406994873046875 0.4019999999999999 7.282494873046875 0.4019999999999999 L 7.165494873046875 0.4019999999999999 L 7.165494873046875 0.6315 L 7.282494873046875 0.6315 Q 7.406994873046875 0.6315 7.406994873046875 0.5175 M 8.237974365234374 0.41549999999999987 Q 8.308474365234375 0.37349999999999994 8.389474365234374 0.37349999999999994 L 8.389474365234374 0.6869999999999999 L 8.306974365234375 0.6869999999999999 Q 8.210974365234375 0.6869999999999999 8.164474365234375 0.7244999999999999 Q 8.117974365234375 0.7619999999999999 8.117974365234375 0.855 L 8.117974365234375 1.2225 L 7.823974365234374 1.2225 L 7.823974365234374 0.3809999999999999 L 8.117974365234375 0.3809999999999999 L 8.117974365234375 0.5294999999999999 Q 8.167474365234375 0.4574999999999999 8.237974365234374 0.41549999999999987 M 9.292506591796874 0.861 L 8.736006591796874 0.861 Q 8.740506591796875 0.9299999999999999 8.774256591796874 0.9637499999999999 Q 8.808006591796875 0.9974999999999999 8.860506591796874 0.9974999999999999 Q 8.934006591796875 0.9974999999999999 8.965506591796874 0.9315 L 9.279006591796874 0.9315 Q 9.259506591796875 1.0185 9.203256591796874 1.0867499999999999 Q 9.147006591796874 1.1549999999999998 9.061506591796874 1.194 Q 8.976006591796875 1.2329999999999999 8.872506591796874 1.2329999999999999 Q 8.748006591796875 1.2329999999999999 8.651256591796875 1.1804999999999999 Q 8.554506591796875 1.128 8.499756591796874 1.0305 Q 8.445006591796874 0.9329999999999999 8.445006591796874 0.8009999999999999 Q 8.445006591796874 0.6689999999999999 8.499006591796874 0.5722499999999999 Q 8.553006591796875 0.4754999999999999 8.649756591796875 0.42299999999999993 Q 8.746506591796875 0.37049999999999994 8.872506591796874 0.37049999999999994 Q 8.997006591796874 0.37049999999999994 9.093006591796874 0.4214999999999999 Q 9.189006591796874 0.4724999999999999 9.243006591796874 0.5677499999999999 Q 9.297006591796874 0.6629999999999999 9.297006591796874 0.7919999999999999 Q 9.297006591796874 0.8264999999999999 9.292506591796874 0.861 M 8.997006591796874 0.7184999999999999 Q 8.997006591796874 0.6644999999999999 8.961006591796874 0.6337499999999999 Q 8.925006591796874 0.6029999999999999 8.871006591796874 0.6029999999999999 Q 8.817006591796874 0.6029999999999999 8.782506591796874 0.6322499999999999 Q 8.748006591796875 0.6614999999999999 8.737506591796874 0.7184999999999999 L 8.997006591796874 0.7184999999999999 M 9.414798339843749 0.573 Q 9.462048339843749 0.4754999999999999 9.544548339843749 0.42299999999999993 Q 9.62704833984375 0.37049999999999994 9.72754833984375 0.37049999999999994 Q 9.80854833984375 0.37049999999999994 9.872298339843748 0.4042499999999999 Q 9.93604833984375 0.43799999999999994 9.972048339843749 0.49649999999999994 L 9.972048339843749 0.11249999999999982 L 10.26754833984375 0.11249999999999982 L 10.26754833984375 1.2225 L 9.972048339843749 1.2225 L 9.972048339843749 1.1055 Q 9.93754833984375 1.164 9.874548339843749 1.1985 Q 9.81154833984375 1.2329999999999999 9.72604833984375 1.2329999999999999 Q 9.62554833984375 1.2329999999999999 9.543798339843748 1.1804999999999999 Q 9.462048339843749 1.128 9.414798339843749 1.02975 Q 9.367548339843749 0.9315 9.367548339843749 0.8009999999999999 Q 9.367548339843749 0.6704999999999999 9.414798339843749 0.573 M 9.929298339843749 0.6734999999999999 Q 9.885048339843749 0.6269999999999999 9.82054833984375 0.6269999999999999 Q 9.75454833984375 0.6269999999999999 9.71104833984375 0.67275 Q 9.66754833984375 0.7184999999999999 9.66754833984375 0.8009999999999999 Q 9.66754833984375 0.8819999999999999 9.71104833984375 0.9292499999999999 Q 9.75454833984375 0.9764999999999999 9.82054833984375 0.9764999999999999 Q 9.885048339843749 0.9764999999999999 9.929298339843749 0.9299999999999999 Q 9.973548339843749 0.8835 9.973548339843749 0.8009999999999999 Q 9.973548339843749 0.7199999999999999 9.929298339843749 0.6734999999999999 M 10.457287353515625 0.26024999999999987 Q 10.410037353515625 0.2174999999999998 10.410037353515625 0.1529999999999998 Q 10.410037353515625 0.08699999999999997 10.457287353515625 0.04349999999999987 Q 10.504537353515625 0 10.582537353515624 0 Q 10.659037353515624 0 10.706287353515624 0.04349999999999987 Q 10.753537353515624 0.08699999999999997 10.753537353515624 0.1529999999999998 Q 10.753537353515624 0.2174999999999998 10.706287353515624 0.26024999999999987 Q 10.659037353515624 0.30299999999999994 10.582537353515624 0.30299999999999994 Q 10.504537353515625 0.30299999999999994 10.457287353515625 0.26024999999999987 M 10.728037353515624 0.3809999999999999 L 10.728037353515624 1.2225 L 10.434037353515624 1.2225 L 10.434037353515624 0.3809999999999999 L 10.728037353515624 0.3809999999999999 M 10.900512451171874 0.573 Q 10.954512451171874 0.4754999999999999 11.051262451171874 0.42299999999999993 Q 11.148012451171875 0.37049999999999994 11.272512451171874 0.37049999999999994 Q 11.433012451171875 0.37049999999999994 11.542512451171874 0.45824999999999994 Q 11.652012451171874 0.5459999999999999 11.683512451171874 0.7034999999999999 L 11.371512451171874 0.7034999999999999 Q 11.344512451171875 0.6209999999999999 11.266512451171874 0.6209999999999999 Q 11.211012451171873 0.6209999999999999 11.178762451171874 0.66675 Q 11.146512451171875 0.7124999999999999 11.146512451171875 0.8009999999999999 Q 11.146512451171875 0.8895 11.178762451171874 0.9359999999999999 Q 11.211012451171873 0.9824999999999999 11.266512451171874 0.9824999999999999 Q 11.346012451171875 0.9824999999999999 11.371512451171874 0.8999999999999999 L 11.683512451171874 0.8999999999999999 Q 11.652012451171874 1.0559999999999998 11.542512451171874 1.1444999999999999 Q 11.433012451171875 1.2329999999999999 11.272512451171874 1.2329999999999999 Q 11.148012451171875 1.2329999999999999 11.051262451171874 1.1804999999999999 Q 10.954512451171874 1.128 10.900512451171874 1.0305 Q 10.846512451171874 0.9329999999999999 10.846512451171874 0.8009999999999999 Q 10.846512451171874 0.6704999999999999 10.900512451171874 0.573 M 12.30000439453125 0.972 L 12.30000439453125 1.2225 L 12.172504394531249 1.2225 Q 11.850004394531249 1.2225 11.850004394531249 0.9029999999999999 L 11.850004394531249 0.6255 L 11.746504394531248 0.6255 L 11.746504394531248 0.3809999999999999 L 11.850004394531249 0.3809999999999999 L 11.850004394531249 0.17699999999999982 L 12.14550439453125 0.17699999999999982 L 12.14550439453125 0.3809999999999999 L 12.29850439453125 0.3809999999999999 L 12.29850439453125 0.6255 L 12.14550439453125 0.6255 L 12.14550439453125 0.9075 Q 12.14550439453125 0.942 12.16125439453125 0.9569999999999999 Q 12.177004394531249 0.972 12.214504394531248 0.972 L 12.30000439453125 0.972 M 12.45678515625 0.26024999999999987 Q 12.40953515625 0.2174999999999998 12.40953515625 0.1529999999999998 Q 12.40953515625 0.08699999999999997 12.45678515625 0.04349999999999987 Q 12.50403515625 0 12.582035156249999 0 Q 12.658535156249998 0 12.705785156249998 0.04349999999999987 Q 12.753035156249998 0.08699999999999997 12.753035156249998 0.1529999999999998 Q 12.753035156249998 0.2174999999999998 12.705785156249998 0.26024999999999987 Q 12.658535156249998 0.30299999999999994 12.582035156249999 0.30299999999999994 Q 12.50403515625 0.30299999999999994 12.45678515625 0.26024999999999987 M 12.72753515625 0.3809999999999999 L 12.72753515625 1.2225 L 12.433535156249999 1.2225 L 12.433535156249999 0.3809999999999999 L 12.72753515625 0.3809999999999999 M 13.05976025390625 1.1804999999999999 Q 12.96001025390625 1.128 12.903010253906249 1.0305 Q 12.846010253906249 0.9329999999999999 12.846010253906249 0.8009999999999999 Q 12.846010253906249 0.6704999999999999 12.903760253906249 0.573 Q 12.96151025390625 0.4754999999999999 13.06126025390625 0.42299999999999993 Q 13.16101025390625 0.37049999999999994 13.28701025390625 0.37049999999999994 Q 13.413010253906249 0.37049999999999994 13.512760253906249 0.42299999999999993 Q 13.61251025390625 0.4754999999999999 13.67026025390625 0.573 Q 13.728010253906248 0.6704999999999999 13.728010253906248 0.8009999999999999 Q 13.728010253906248 0.9315 13.67026025390625 1.02975 Q 13.61251025390625 1.128 13.512010253906249 1.1804999999999999 Q 13.411510253906249 1.2329999999999999 13.28551025390625 1.2329999999999999 Q 13.15951025390625 1.2329999999999999 13.05976025390625 1.1804999999999999 M 13.38826025390625 0.9322499999999999 Q 13.42951025390625 0.8864999999999998 13.42951025390625 0.8009999999999999 Q 13.42951025390625 0.7154999999999999 13.38826025390625 0.6704999999999999 Q 13.34701025390625 0.6255 13.28701025390625 0.6255 Q 13.227010253906249 0.6255 13.186510253906249 0.6704999999999999 Q 13.14601025390625 0.7154999999999999 13.14601025390625 0.8009999999999999 Q 13.14601025390625 0.8879999999999999 13.185010253906249 0.9329999999999999 Q 13.224010253906249 0.978 13.28551025390625 0.978 Q 13.34701025390625 0.978 13.38826025390625 0.9322499999999999 M 14.62798974609375 0.47024999999999995 Q 14.71348974609375 0.567 14.71348974609375 0.732 L 14.71348974609375 1.2225 L 14.419489746093749 1.2225 L 14.419489746093749 0.7709999999999999 Q 14.419489746093749 0.699 14.38198974609375 0.65775 Q 14.34448974609375 0.6164999999999999 14.281489746093749 0.6164999999999999 Q 14.215489746093748 0.6164999999999999 14.177989746093749 0.65775 Q 14.140489746093749 0.699 14.140489746093749 0.7709999999999999 L 14.140489746093749 1.2225 L 13.846489746093749 1.2225 L 13.846489746093749 0.3809999999999999 L 14.140489746093749 0.3809999999999999 L 14.140489746093749 0.5009999999999999 Q 14.179489746093749 0.44399999999999995 14.24548974609375 0.40874999999999995 Q 14.311489746093748 0.37349999999999994 14.396989746093748 0.37349999999999994 Q 14.542489746093748 0.37349999999999994 14.62798974609375 0.47024999999999995 M 15.029200927734374 1.19475 Q 14.939950927734374 1.1564999999999999 14.888200927734374 1.08975 Q 14.836450927734374 1.023 14.830450927734374 0.9389999999999998 L 15.115450927734374 0.9389999999999998 Q 15.121450927734374 0.9794999999999999 15.152950927734373 1.002 Q 15.184450927734375 1.0245 15.230950927734375 1.0245 Q 15.266950927734374 1.0245 15.287950927734373 1.0094999999999998 Q 15.308950927734374 0.9944999999999999 15.308950927734374 0.9704999999999999 Q 15.308950927734374 0.9389999999999998 15.274450927734375 0.9239999999999999 Q 15.239950927734373 0.9089999999999999 15.160450927734374 0.8909999999999999 Q 15.070450927734374 0.8729999999999999 15.010450927734373 0.8504999999999999 Q 14.950450927734375 0.8279999999999998 14.906200927734375 0.7769999999999999 Q 14.861950927734373 0.726 14.861950927734373 0.6389999999999999 Q 14.861950927734373 0.564 14.902450927734375 0.5032499999999999 Q 14.942950927734374 0.4424999999999999 15.021700927734374 0.40649999999999986 Q 15.100450927734373 0.37049999999999994 15.211450927734374 0.37049999999999994 Q 15.376450927734375 0.37049999999999994 15.470950927734375 0.4514999999999999 Q 15.565450927734373 0.5324999999999999 15.580450927734374 0.6644999999999999 L 15.314950927734374 0.6644999999999999 Q 15.307450927734374 0.6239999999999999 15.279700927734375 0.60225 Q 15.251950927734374 0.5804999999999999 15.205450927734374 0.5804999999999999 Q 15.169450927734374 0.5804999999999999 15.150700927734373 0.5939999999999999 Q 15.131950927734374 0.6074999999999999 15.131950927734374 0.6315 Q 15.131950927734374 0.6614999999999999 15.166450927734374 0.6772499999999999 Q 15.200950927734374 0.693 15.277450927734375 0.7094999999999999 Q 15.368950927734375 0.7289999999999999 15.429700927734373 0.7529999999999999 Q 15.490450927734374 0.7769999999999999 15.536200927734374 0.8302499999999999 Q 15.581950927734374 0.8835 15.581950927734374 0.9749999999999999 Q 15.581950927734374 1.0485 15.539200927734374 1.107 Q 15.496450927734374 1.1655 15.417700927734375 1.19925 Q 15.338950927734373 1.2329999999999999 15.232450927734375 1.2329999999999999 Q 15.118450927734374 1.2329999999999999 15.029200927734374 1.19475" fill="#000000" fill-rule="nonzero"></path></g><g></g></g><defs><clipPath id="SvgjsClipPath6529"><path d=" M -4.513132657906144 -0.6709188168880104 h 4.113132657906144 v 2.5643376337760206 h -4.113132657906144 Z"></path></clipPath><clipPath id="SvgjsClipPath652769750651-cb46-4658-a50e-0c702c105f2d"><path d=" M -4.513132657906144 -0.6709188168880101 L -0.40000000000000036 -0.6709188168880101 L -0.40000000000000036 1.8934188168880102 L -4.513132657906144 1.8934188168880102 Z"></path></clipPath><linearGradient id="gradient-6dfbf494-b272-47a5-831d-4d630dea9d20_0" x1="0" x2="1" y1="0" y2="1"><stop stop-color="#d36d44" offset="0"></stop><stop stop-color="#bd2949" offset="1"></stop></linearGradient><linearGradient id="gradient-6dfbf494-b272-47a5-831d-4d630dea9d20_1" x1="0" x2="1" y1="0" y2="1"><stop stop-color="#e09241" offset="0"></stop><stop stop-color="#c94e46" offset="1"></stop></linearGradient><linearGradient id="gradient-6dfbf494-b272-47a5-831d-4d630dea9d20_2" x1="0" x2="1" y1="0" y2="1"><stop stop-color="#e09341" offset="0"></stop><stop stop-color="#cb5446" offset="1"></stop></linearGradient></defs></svg>