<svg xmlns="http://www.w3.org/2000/svg" version="1.1" xmlns:xlink="http://www.w3.org/1999/xlink" xmlns:svgjs="http://svgjs.dev/svgjs" viewBox="0 0 17.93278353974824 6.342950013305014"><g transform="matrix(0.7581884708810794,0,0,0.7581884708810794,5.746387813704061,1.9286484704787357)"><g transform="matrix(1,0,0,1,0,0)" clip-path="url(#SvgjsClipPath23687)"><g clip-path="url(#SvgjsClipPath23685b9d1cc6e-3a52-4d7b-8b42-41db6b6eaf45)"><path d=" M -1.9759377443759456 -0.2976251544382784 L -2.811890959629775 0.8553804204324145 L -1.879243854066914 0.5875728778086506 L -2.6379800912025315 1.7108105478770628 L -1.9241719795283605 1.6478213850471795 L -2.085167306892898 2.494238260573737 L -1.455241145061812 1.316575743674241 L -2.072631634684977 1.4578869576544395 L -0.9270853027809816 0.10406889273124054 L -1.7852090457413812 0.3022568343325016 L -0.9642779170177049 -0.5207808398586216 L -1.9759377443759456 -0.2976251544382784 Z" fill="url(#gradient-029f5159-a17e-46c0-92e6-660a42981d7d_0)" transform="matrix(1,0,0,1,0,0)" fill-rule="nonzero"></path></g><g clip-path="url(#SvgjsClipPath23685b9d1cc6e-3a52-4d7b-8b42-41db6b6eaf45)"><path d=" M -2.6381872923960508 3.7991913773586217 L -3.0745875394800617 3.2140206733277163 L -2.5885971400804193 3.5066232921092957 L -3.153945596597974 2.32136339811409 L -2.2742383959793075 3.442149187392523 L -2.4001476545745675 2.9313637118350653 L -2.0877227882796365 3.3032898542023035 L -1.740591722070214 2.8272105785593364 L -1.8000929981425215 3.2933787304456277 L -1.2843692274728515 2.341220179159695 L -1.4976137891365195 3.308228149314515 L -1.0562407134080445 2.9412748355917406 L -1.4728187129787034 3.7991913773586217 L -2.6381872923960508 3.7991913773586217 Z" fill="url(#gradient-029f5159-a17e-46c0-92e6-660a42981d7d_1)" transform="matrix(1,0,0,1,0,0)" fill-rule="nonzero"></path></g><g clip-path="url(#SvgjsClipPath23685b9d1cc6e-3a52-4d7b-8b42-41db6b6eaf45)"><path d=" M -0.3999999999999999 2.838710244799661 L -0.8087388877491768 3.0486050538347658 L -1.1273107227851824 3.40581991146213 L -0.7087643118760893 3.197271910184902 L -0.3999999999999999 2.838710244799661 Z" fill="url(#gradient-029f5159-a17e-46c0-92e6-660a42981d7d_2)" transform="matrix(1,0,0,1,0,0)" fill-rule="nonzero"></path></g><g clip-path="url(#SvgjsClipPath23685b9d1cc6e-3a52-4d7b-8b42-41db6b6eaf45)"><path d=" M -1.536015077002106 2.1779801721986978 L -1.5981063679934056 2.2688724290891873 L -1.6244209195703632 2.380450271799359 L -1.5600849489826043 2.2887637436670447 L -1.536015077002106 2.1779801721986978 Z" fill="url(#gradient-029f5159-a17e-46c0-92e6-660a42981d7d_3)" transform="matrix(1,0,0,1,0,0)" fill-rule="nonzero"></path></g><g clip-path="url(#SvgjsClipPath23685b9d1cc6e-3a52-4d7b-8b42-41db6b6eaf45)"><path d=" M -2.7451376417842903 2.020887133978775 L -2.690885462614473 2.2076099428719655 L -2.5730225170342145 2.40873323471475 L -2.646337206007812 2.1825385984561234 L -2.7451376417842903 2.020887133978775 Z" fill="url(#gradient-029f5159-a17e-46c0-92e6-660a42981d7d_4)" transform="matrix(1,0,0,1,0,0)" fill-rule="nonzero"></path></g><g clip-path="url(#SvgjsClipPath23685b9d1cc6e-3a52-4d7b-8b42-41db6b6eaf45)"><path d=" M -3.707932521004217 3.0716734533799204 L -3.484811369116127 3.244030312855769 L -3.153945596597974 3.3761901407888626 L -3.4449251393636517 3.1635326491735 L -3.707932521004217 3.0716734533799204 Z" fill="url(#gradient-029f5159-a17e-46c0-92e6-660a42981d7d_5)" transform="matrix(1,0,0,1,0,0)" fill-rule="nonzero"></path></g></g><g><path d=" M 0.46872 0.20789999999999997 L 0.46872 0.9809100000000001 Q 0.46872 1.08864 0.5188050000000001 1.14723 Q 0.56889 1.2058200000000001 0.67095 1.2058200000000001 Q 0.7730100000000001 1.2058200000000001 0.8249850000000001 1.146285 Q 0.8769600000000001 1.08675 0.8769600000000001 0.9809100000000001 L 0.8769600000000001 0.20789999999999997 L 1.2474 0.20789999999999997 L 1.2474 0.9809100000000001 Q 1.2474 1.16424 1.16991 1.293705 Q 1.0924200000000002 1.42317 0.9591750000000001 1.488375 Q 0.82593 1.5535800000000002 0.66339 1.5535800000000002 Q 0.50085 1.5535800000000002 0.373275 1.488375 Q 0.24570000000000003 1.42317 0.172935 1.29465 Q 0.10017000000000001 1.16613 0.10017000000000001 0.9809100000000001 L 0.10017000000000001 0.20789999999999997 L 0.46872 0.20789999999999997 M 1.4713179345703127 1.501605 Q 1.4117829345703128 1.44774 1.4117829345703128 1.3645800000000001 Q 1.4117829345703128 1.28142 1.4713179345703127 1.22661 Q 1.5308529345703128 1.1718000000000002 1.6291329345703127 1.1718000000000002 Q 1.7255229345703127 1.1718000000000002 1.7850579345703128 1.22661 Q 1.8445929345703127 1.28142 1.8445929345703127 1.3645800000000001 Q 1.8445929345703127 1.44585 1.7850579345703128 1.50066 Q 1.7255229345703127 1.5554700000000001 1.6291329345703127 1.5554700000000001 Q 1.5308529345703128 1.5554700000000001 1.4713179345703127 1.501605 M 2.1375909228515626 1.4430150000000002 Q 1.9882809228515628 1.3324500000000001 1.9769409228515626 1.12644 L 2.3719509228515627 1.12644 Q 2.3776209228515626 1.1963700000000002 2.413530922851563 1.2285000000000001 Q 2.449440922851563 1.2606300000000001 2.5061409228515625 1.2606300000000001 Q 2.557170922851563 1.2606300000000001 2.5902459228515626 1.235115 Q 2.623320922851563 1.2096 2.623320922851563 1.16424 Q 2.623320922851563 1.10565 2.568510922851563 1.07352 Q 2.5137009228515628 1.04139 2.3908509228515626 1.0017 Q 2.2604409228515627 0.95823 2.180115922851563 0.917595 Q 2.0997909228515628 0.8769600000000001 2.040255922851563 0.798525 Q 1.9807209228515628 0.72009 1.9807209228515628 0.59346 Q 1.9807209228515628 0.4649399999999999 2.0449809228515625 0.373275 Q 2.109240922851563 0.2816099999999999 2.222640922851563 0.2343599999999999 Q 2.336040922851563 0.1871099999999999 2.479680922851563 0.1871099999999999 Q 2.7121509228515626 0.1871099999999999 2.851065922851563 0.29578499999999996 Q 2.989980922851563 0.40446000000000004 2.9994309228515625 0.60102 L 2.5968609228515627 0.60102 Q 2.5949709228515627 0.54054 2.5600059228515626 0.5103 Q 2.525040922851563 0.48005999999999993 2.4702309228515626 0.48005999999999993 Q 2.428650922851563 0.48005999999999993 2.4021909228515628 0.5046299999999999 Q 2.3757309228515626 0.5292000000000001 2.3757309228515626 0.57456 Q 2.3757309228515626 0.61236 2.405025922851563 0.639765 Q 2.4343209228515628 0.66717 2.477790922851563 0.687015 Q 2.521260922851563 0.70686 2.606310922851563 0.7371 Q 2.732940922851563 0.78057 2.815155922851563 0.823095 Q 2.8973709228515627 0.8656200000000001 2.956905922851563 0.942165 Q 3.0164409228515625 1.01871 3.0164409228515625 1.13589 Q 3.0164409228515625 1.25496 2.956905922851563 1.34946 Q 2.8973709228515627 1.4439600000000001 2.784915922851563 1.4987700000000002 Q 2.672460922851563 1.5535800000000002 2.5193709228515626 1.5535800000000002 Q 2.286900922851563 1.5535800000000002 2.1375909228515626 1.4430150000000002 M 3.208266694335938 1.501605 Q 3.148731694335938 1.44774 3.148731694335938 1.3645800000000001 Q 3.148731694335938 1.28142 3.208266694335938 1.22661 Q 3.267801694335938 1.1718000000000002 3.366081694335938 1.1718000000000002 Q 3.462471694335938 1.1718000000000002 3.522006694335938 1.22661 Q 3.5815416943359377 1.28142 3.5815416943359377 1.3645800000000001 Q 3.5815416943359377 1.44585 3.522006694335938 1.50066 Q 3.462471694335938 1.5554700000000001 3.366081694335938 1.5554700000000001 Q 3.267801694335938 1.5554700000000001 3.208266694335938 1.501605 M 5.007555000000001 0.29200500000000007 Q 5.165370000000001 0.37610999999999994 5.250420000000001 0.52731 Q 5.335470000000001 0.6785100000000001 5.335470000000001 0.8731800000000001 Q 5.335470000000001 1.06596 5.249475000000001 1.21716 Q 5.163480000000002 1.36836 5.005665000000001 1.454355 Q 4.847850000000001 1.54035 4.639950000000001 1.54035 L 4.112640000000001 1.54035 L 4.112640000000001 0.20789999999999997 L 4.639950000000001 0.20789999999999997 Q 4.8497400000000015 0.20789999999999997 5.007555000000001 0.29200500000000007 M 4.8667500000000015 1.1245500000000002 Q 4.959360000000001 1.03572 4.959360000000001 0.8731800000000001 Q 4.959360000000001 0.70875 4.8667500000000015 0.618975 Q 4.774140000000001 0.5292000000000001 4.611600000000001 0.5292000000000001 L 4.483080000000001 0.5292000000000001 L 4.483080000000001 1.2133800000000001 L 4.611600000000001 1.2133800000000001 Q 4.774140000000001 1.2133800000000001 4.8667500000000015 1.1245500000000002 M 5.529167314453126 0.32791499999999996 Q 5.469632314453126 0.2740499999999999 5.469632314453126 0.19277999999999995 Q 5.469632314453126 0.10962000000000005 5.529167314453126 0.054810000000000025 Q 5.588702314453126 0 5.686982314453126 0 Q 5.783372314453126 0 5.842907314453126 0.054810000000000025 Q 5.9024423144531255 0.10962000000000005 5.9024423144531255 0.19277999999999995 Q 5.9024423144531255 0.2740499999999999 5.842907314453126 0.32791499999999996 Q 5.783372314453126 0.38178 5.686982314453126 0.38178 Q 5.588702314453126 0.38178 5.529167314453126 0.32791499999999996 M 5.870312314453126 0.48005999999999993 L 5.870312314453126 1.54035 L 5.499872314453126 1.54035 L 5.499872314453126 0.48005999999999993 L 5.870312314453126 0.48005999999999993 M 6.2756859375000005 1.5053850000000002 Q 6.163230937500001 1.4571900000000002 6.098025937500001 1.373085 Q 6.0328209375 1.28898 6.025260937500001 1.18314 L 6.3843609375 1.18314 Q 6.391920937500001 1.2341700000000002 6.4316109375 1.26252 Q 6.471300937500001 1.29087 6.529890937500001 1.29087 Q 6.575250937500001 1.29087 6.601710937500001 1.27197 Q 6.628170937500001 1.2530700000000001 6.628170937500001 1.22283 Q 6.628170937500001 1.18314 6.584700937500001 1.16424 Q 6.541230937500001 1.14534 6.4410609375000005 1.12266 Q 6.327660937500001 1.09998 6.2520609375000005 1.07163 Q 6.176460937500001 1.04328 6.1207059375 0.97902 Q 6.064950937500001 0.91476 6.064950937500001 0.8051400000000001 Q 6.064950937500001 0.71064 6.115980937500001 0.634095 Q 6.167010937500001 0.55755 6.2662359375 0.5121899999999999 Q 6.365460937500001 0.4668300000000001 6.5053209375000005 0.4668300000000001 Q 6.713220937500001 0.4668300000000001 6.832290937500001 0.56889 Q 6.9513609375000005 0.67095 6.970260937500001 0.8372700000000001 L 6.635730937500001 0.8372700000000001 Q 6.626280937500001 0.78624 6.591315937500001 0.758835 Q 6.5563509375 0.73143 6.497760937500001 0.73143 Q 6.452400937500001 0.73143 6.428775937500001 0.74844 Q 6.405150937500001 0.7654500000000001 6.405150937500001 0.79569 Q 6.405150937500001 0.8334900000000001 6.4486209375 0.8533350000000001 Q 6.4920909375 0.8731800000000001 6.588480937500001 0.89397 Q 6.703770937500001 0.91854 6.780315937500001 0.9487800000000001 Q 6.8568609375000005 0.97902 6.9145059375 1.0461150000000001 Q 6.9721509375 1.11321 6.9721509375 1.2285000000000001 Q 6.9721509375 1.32111 6.9182859375 1.3948200000000002 Q 6.8644209375 1.4685300000000001 6.765195937500001 1.511055 Q 6.665970937500001 1.5535800000000002 6.531780937500001 1.5535800000000002 Q 6.388140937500001 1.5535800000000002 6.2756859375000005 1.5053850000000002 M 7.150743017578126 0.7219800000000001 Q 7.210278017578126 0.59913 7.313283017578126 0.53298 Q 7.416288017578126 0.4668300000000001 7.542918017578126 0.4668300000000001 Q 7.652538017578126 0.4668300000000001 7.731918017578126 0.5103 Q 7.811298017578126 0.55377 7.854768017578126 0.62748 L 7.854768017578126 0.48005999999999993 L 8.225208017578126 0.48005999999999993 L 8.225208017578126 1.54035 L 7.854768017578126 1.54035 L 7.854768017578126 1.39293 Q 7.811298017578126 1.4666400000000002 7.730973017578126 1.51011 Q 7.650648017578126 1.5535800000000002 7.542918017578126 1.5535800000000002 Q 7.416288017578126 1.5535800000000002 7.313283017578126 1.48743 Q 7.210278017578126 1.42128 7.150743017578126 1.297485 Q 7.091208017578126 1.1736900000000001 7.091208017578126 1.00926 Q 7.091208017578126 0.8448300000000001 7.150743017578126 0.7219800000000001 M 7.799013017578126 0.8486100000000001 Q 7.7432580175781265 0.7900200000000001 7.661988017578126 0.7900200000000001 Q 7.578828017578126 0.7900200000000001 7.524018017578126 0.847665 Q 7.469208017578126 0.9053100000000001 7.469208017578126 1.00926 Q 7.469208017578126 1.11132 7.524018017578126 1.170855 Q 7.578828017578126 1.23039 7.661988017578126 1.23039 Q 7.7432580175781265 1.23039 7.799013017578126 1.1718000000000002 Q 7.854768017578126 1.11321 7.854768017578126 1.00926 Q 7.854768017578126 0.9072 7.799013017578126 0.8486100000000001 M 8.63059917480469 1.5053850000000002 Q 8.51814417480469 1.4571900000000002 8.452939174804689 1.373085 Q 8.38773417480469 1.28898 8.38017417480469 1.18314 L 8.73927417480469 1.18314 Q 8.74683417480469 1.2341700000000002 8.78652417480469 1.26252 Q 8.82621417480469 1.29087 8.884804174804689 1.29087 Q 8.93016417480469 1.29087 8.95662417480469 1.27197 Q 8.98308417480469 1.2530700000000001 8.98308417480469 1.22283 Q 8.98308417480469 1.18314 8.939614174804689 1.16424 Q 8.89614417480469 1.14534 8.79597417480469 1.12266 Q 8.682574174804689 1.09998 8.606974174804689 1.07163 Q 8.53137417480469 1.04328 8.47561917480469 0.97902 Q 8.419864174804689 0.91476 8.419864174804689 0.8051400000000001 Q 8.419864174804689 0.71064 8.47089417480469 0.634095 Q 8.52192417480469 0.55755 8.621149174804689 0.5121899999999999 Q 8.72037417480469 0.4668300000000001 8.86023417480469 0.4668300000000001 Q 9.068134174804689 0.4668300000000001 9.18720417480469 0.56889 Q 9.30627417480469 0.67095 9.325174174804689 0.8372700000000001 L 8.99064417480469 0.8372700000000001 Q 8.981194174804688 0.78624 8.946229174804689 0.758835 Q 8.911264174804689 0.73143 8.85267417480469 0.73143 Q 8.80731417480469 0.73143 8.783689174804689 0.74844 Q 8.76006417480469 0.7654500000000001 8.76006417480469 0.79569 Q 8.76006417480469 0.8334900000000001 8.803534174804689 0.8533350000000001 Q 8.84700417480469 0.8731800000000001 8.94339417480469 0.89397 Q 9.05868417480469 0.91854 9.135229174804689 0.9487800000000001 Q 9.21177417480469 0.97902 9.269419174804689 1.0461150000000001 Q 9.32706417480469 1.11321 9.32706417480469 1.2285000000000001 Q 9.32706417480469 1.32111 9.27319917480469 1.3948200000000002 Q 9.21933417480469 1.4685300000000001 9.12010917480469 1.511055 Q 9.020884174804689 1.5535800000000002 8.88669417480469 1.5535800000000002 Q 8.743054174804689 1.5535800000000002 8.63059917480469 1.5053850000000002 M 10.132191254882814 1.22472 L 10.132191254882814 1.54035 L 9.971541254882816 1.54035 Q 9.565191254882814 1.54035 9.565191254882814 1.13778 L 9.565191254882814 0.78813 L 9.434781254882814 0.78813 L 9.434781254882814 0.48005999999999993 L 9.565191254882814 0.48005999999999993 L 9.565191254882814 0.22302 L 9.937521254882814 0.22302 L 9.937521254882814 0.48005999999999993 L 10.130301254882815 0.48005999999999993 L 10.130301254882815 0.78813 L 9.937521254882814 0.78813 L 9.937521254882814 1.14345 Q 9.937521254882814 1.1869200000000002 9.957366254882814 1.2058200000000001 Q 9.977211254882814 1.22472 10.024461254882814 1.22472 L 10.132191254882814 1.22472 M 11.30781001464844 1.08486 L 10.60662001464844 1.08486 Q 10.61229001464844 1.1718000000000002 10.65481501464844 1.214325 Q 10.69734001464844 1.25685 10.76349001464844 1.25685 Q 10.85610001464844 1.25685 10.89579001464844 1.1736900000000001 L 11.29080001464844 1.1736900000000001 Q 11.26623001464844 1.2833100000000002 11.19535501464844 1.369305 Q 11.12448001464844 1.4553 11.01675001464844 1.50444 Q 10.90902001464844 1.5535800000000002 10.77861001464844 1.5535800000000002 Q 10.62174001464844 1.5535800000000002 10.49983501464844 1.48743 Q 10.37793001464844 1.42128 10.30894501464844 1.2984300000000002 Q 10.23996001464844 1.17558 10.23996001464844 1.00926 Q 10.23996001464844 0.84294 10.30800001464844 0.721035 Q 10.37604001464844 0.59913 10.49794501464844 0.53298 Q 10.61985001464844 0.4668300000000001 10.77861001464844 0.4668300000000001 Q 10.93548001464844 0.4668300000000001 11.056440014648441 0.5310900000000001 Q 11.177400014648441 0.59535 11.245440014648441 0.715365 Q 11.31348001464844 0.83538 11.31348001464844 0.99792 Q 11.31348001464844 1.04139 11.30781001464844 1.08486 M 10.93548001464844 0.9053100000000001 Q 10.93548001464844 0.8372700000000001 10.89012001464844 0.798525 Q 10.84476001464844 0.75978 10.77672001464844 0.75978 Q 10.70868001464844 0.75978 10.66521001464844 0.796635 Q 10.62174001464844 0.8334900000000001 10.60851001464844 0.9053100000000001 L 10.93548001464844 0.9053100000000001 M 11.984482617187503 0.52353 Q 12.073312617187502 0.47061 12.175372617187502 0.47061 L 12.175372617187502 0.8656200000000001 L 12.071422617187503 0.8656200000000001 Q 11.950462617187503 0.8656200000000001 11.891872617187502 0.9128700000000001 Q 11.833282617187503 0.9601200000000001 11.833282617187503 1.0773000000000001 L 11.833282617187503 1.54035 L 11.462842617187503 1.54035 L 11.462842617187503 0.48005999999999993 L 11.833282617187503 0.48005999999999993 L 11.833282617187503 0.66717 Q 11.895652617187503 0.57645 11.984482617187503 0.52353" fill="#000000" fill-rule="nonzero"></path></g><g><path d=" M 0.8966017500000001 2.7040496625 Q 0.85248075 2.7836250375000002 0.7610872500000001 2.8324732875 Q 0.6696937500000001 2.8813215375 0.53417925 2.8813215375 L 0.36714975000000005 2.8813215375 L 0.36714975000000005 3.2784105375 L 0.0976965 3.2784105375 L 0.0976965 2.1722340375 L 0.53417925 2.1722340375 Q 0.66654225 2.1722340375 0.75793575 2.2179307875000003 Q 0.84932925 2.2636275375 0.8950260000000001 2.3439907875 Q 0.94072275 2.4243540375 0.94072275 2.5283535375 Q 0.94072275 2.6244742875 0.8966017500000001 2.7040496625 M 0.6287242500000001 2.6307772875 Q 0.66654225 2.5945350375 0.66654225 2.5283535375 Q 0.66654225 2.4621720375000002 0.6287242500000001 2.4259297875000003 Q 0.5909062500000001 2.3896875375 0.5136945 2.3896875375 L 0.36714975000000005 2.3896875375 L 0.36714975000000005 2.6670195375 L 0.5136945 2.6670195375 Q 0.5909062500000001 2.6670195375 0.6287242500000001 2.6307772875 M 1.7653023841406248 2.4314449125 Q 1.8362111341406249 2.3896875375 1.9228773841406248 2.3896875375 L 1.9228773841406248 2.6748982875 L 1.8488171341406248 2.6748982875 Q 1.747969134140625 2.6748982875 1.697545134140625 2.7182314125 Q 1.6471211341406249 2.7615645375 1.6471211341406249 2.8702912875 L 1.6471211341406249 3.2784105375 L 1.377667884140625 3.2784105375 L 1.377667884140625 2.3991420375 L 1.6471211341406249 2.3991420375 L 1.6471211341406249 2.5456867875 Q 1.694393634140625 2.4732022875 1.7653023841406248 2.4314449125 M 3.1728387326367185 2.9033820375 L 2.5630234826367184 2.9033820375 Q 2.5693264826367184 2.9853210375000003 2.6158111076367185 3.0286541625 Q 2.6622957326367183 3.0719872875000003 2.7300529826367184 3.0719872875000003 Q 2.8309009826367184 3.0719872875000003 2.8702947326367183 2.9868967875 L 3.1570812326367186 2.9868967875 Q 3.1350207326367183 3.0735630375 3.0775058576367185 3.1428960375 Q 3.0199909826367186 3.2122290375 2.9333247326367182 3.2516227875 Q 2.8466584826367183 3.2910165375 2.7395074826367183 3.2910165375 Q 2.6102959826367185 3.2910165375 2.5094479826367184 3.2358652875000002 Q 2.4085999826367184 3.1807140375 2.3518729826367184 3.0782902875 Q 2.2951459826367184 2.9758665375 2.2951459826367184 2.8387762875 Q 2.2951459826367184 2.7016860375 2.3510851076367185 2.5992622875 Q 2.407024232636718 2.4968385375 2.507872232636718 2.4416872875 Q 2.6087202326367183 2.3865360375 2.7395074826367183 2.3865360375 Q 2.8671432326367183 2.3865360375 2.9664154826367186 2.4401115375 Q 3.0656877326367185 2.4936870375 3.1216268576367185 2.5929592875000003 Q 3.177565982636718 2.6922315375 3.177565982636718 2.8245945375 Q 3.177565982636718 2.8624125375 3.1728387326367185 2.9033820375 M 2.9018097326367185 2.7536857875000003 Q 2.9018097326367185 2.6843527875 2.8545372326367184 2.6433832875 Q 2.8072647326367184 2.6024137875 2.7363559826367183 2.6024137875 Q 2.668598732636718 2.6024137875 2.6221141076367185 2.6418075375 Q 2.5756294826367183 2.6812012875 2.564599232636718 2.7536857875000003 L 2.9018097326367185 2.7536857875000003 M 3.6137301664599604 2.5992622875 Q 3.6649420414599603 2.4968385375 3.7531840414599604 2.4416872875 Q 3.8414260414599606 2.3865360375 3.9501527914599603 2.3865360375 Q 4.03681904145996 2.3865360375 4.108515666459961 2.4227782875 Q 4.18021229145996 2.4590205375 4.22118179145996 2.5204747875 L 4.22118179145996 2.1123555375 L 4.49063504145996 2.1123555375 L 4.49063504145996 3.2784105375 L 4.22118179145996 3.2784105375 L 4.22118179145996 3.1523505375000003 Q 4.183363791459961 3.2153805375 4.11324291645996 3.2531985375000003 Q 4.04312204145996 3.2910165375 3.9501527914599603 3.2910165375 Q 3.8414260414599606 3.2910165375 3.7531840414599604 3.2350774125 Q 3.6649420414599603 3.1791382875000003 3.6137301664599604 3.0759266625 Q 3.5625182914599605 2.9727150375 3.5625182914599605 2.8372005375000002 Q 3.5625182914599605 2.7016860375 3.6137301664599604 2.5992622875 M 4.16524266645996 2.6796255375 Q 4.10930354145996 2.6213227875 4.028940291459961 2.6213227875 Q 3.9485770414599606 2.6213227875 3.8926379164599605 2.6788376625000003 Q 3.8366987914599604 2.7363525375 3.8366987914599604 2.8372005375000002 Q 3.8366987914599604 2.9380485375000003 3.8926379164599605 2.9971391625 Q 3.9485770414599606 3.0562297875 4.028940291459961 3.0562297875 Q 4.10930354145996 3.0562297875 4.16524266645996 2.9979270375000002 Q 4.22118179145996 2.9396242875 4.22118179145996 2.8387762875 Q 4.22118179145996 2.7379282875 4.16524266645996 2.6796255375 M 5.00241675946289 2.2659911624999998 Q 4.95750788446289 2.2242337875000002 4.95750788446289 2.1627795375 Q 4.95750788446289 2.0997495375 5.00241675946289 2.0579921624999997 Q 5.04732563446289 2.0162347875 5.11823438446289 2.0162347875 Q 5.1875673844628905 2.0162347875 5.23247625946289 2.0579921624999997 Q 5.27738513446289 2.0997495375 5.27738513446289 2.1627795375 Q 5.27738513446289 2.2242337875000002 5.23247625946289 2.2659911624999998 Q 5.1875673844628905 2.3077485375 5.11823438446289 2.3077485375 Q 5.04732563446289 2.3077485375 5.00241675946289 2.2659911624999998 M 5.252173134462891 2.3991420375 L 5.252173134462891 3.2784105375 L 4.98271988446289 3.2784105375 L 4.98271988446289 2.3991420375 L 5.252173134462891 2.3991420375 M 5.746569282641601 2.5992622875 Q 5.802508407641601 2.4968385375 5.9025685326416015 2.4416872875 Q 6.002628657641601 2.3865360375 6.1318401576416015 2.3865360375 Q 6.297293907641601 2.3865360375 6.4083842826416015 2.4732022875 Q 6.519474657641601 2.5598685375 6.5541411576416015 2.7174435375000003 L 6.267354657641601 2.7174435375000003 Q 6.231112407641601 2.6165955375000003 6.127112907641601 2.6165955375000003 Q 6.053052657641601 2.6165955375000003 6.008931657641601 2.6741104125 Q 5.964810657641602 2.7316252875 5.964810657641602 2.8387762875 Q 5.964810657641602 2.9459272875 6.008931657641601 3.0034421625 Q 6.053052657641601 3.0609570375 6.127112907641601 3.0609570375 Q 6.231112407641601 3.0609570375 6.267354657641601 2.9601090375 L 6.5541411576416015 2.9601090375 Q 6.519474657641601 3.1145325375 6.407596407641601 3.2027745375000003 Q 6.295718157641601 3.2910165375 6.1318401576416015 3.2910165375 Q 6.002628657641601 3.2910165375 5.9025685326416015 3.2358652875000002 Q 5.802508407641601 3.1807140375 5.746569282641601 3.0782902875 Q 5.690630157641601 2.9758665375 5.690630157641601 2.8387762875 Q 5.690630157641601 2.7016860375 5.746569282641601 2.5992622875 M 7.484228333774414 3.0499267875 L 7.484228333774414 3.2784105375 L 7.347138083774414 3.2784105375 Q 7.200593333774414 3.2784105375 7.118654333774414 3.2067139125 Q 7.036715333774414 3.1350172875 7.036715333774414 2.9727150375 L 7.036715333774414 2.6228985375000002 L 6.929564333774414 2.6228985375000002 L 6.929564333774414 2.3991420375 L 7.036715333774414 2.3991420375 L 7.036715333774414 2.1848400375 L 7.306168583774414 2.1848400375 L 7.306168583774414 2.3991420375 L 7.482652583774414 2.3991420375 L 7.482652583774414 2.6228985375000002 L 7.306168583774414 2.6228985375000002 L 7.306168583774414 2.9758665375 Q 7.306168583774414 3.0152602875000003 7.325077583774414 3.0325935375 Q 7.343986583774414 3.0499267875 7.388107583774414 3.0499267875 L 7.484228333774414 3.0499267875 M 7.95029714418457 2.2659911624999998 Q 7.90538826918457 2.2242337875000002 7.90538826918457 2.1627795375 Q 7.90538826918457 2.0997495375 7.95029714418457 2.0579921624999997 Q 7.99520601918457 2.0162347875 8.066114769184571 2.0162347875 Q 8.13544776918457 2.0162347875 8.18035664418457 2.0579921624999997 Q 8.22526551918457 2.0997495375 8.22526551918457 2.1627795375 Q 8.22526551918457 2.2242337875000002 8.18035664418457 2.2659911624999998 Q 8.13544776918457 2.3077485375 8.066114769184571 2.3077485375 Q 7.99520601918457 2.3077485375 7.95029714418457 2.2659911624999998 M 8.20005351918457 2.3991420375 L 8.20005351918457 3.2784105375 L 7.93060026918457 3.2784105375 L 7.93060026918457 2.3991420375 L 8.20005351918457 2.3991420375 M 8.859903417363281 3.2358652875000002 Q 8.75669179236328 3.1807140375 8.697601167363281 3.0782902875 Q 8.638510542363282 2.9758665375 8.638510542363282 2.8387762875 Q 8.638510542363282 2.7032617875000002 8.698389042363281 2.6000501625 Q 8.758267542363281 2.4968385375 8.862267042363282 2.4416872875 Q 8.96626654236328 2.3865360375 9.09547804236328 2.3865360375 Q 9.224689542363281 2.3865360375 9.328689042363282 2.4416872875 Q 9.43268854236328 2.4968385375 9.49256704236328 2.6000501625 Q 9.55244554236328 2.7032617875000002 9.55244554236328 2.8387762875 Q 9.55244554236328 2.9742907875 9.491779167363282 3.0775024125 Q 9.431112792363281 3.1807140375 9.32632541736328 3.2358652875000002 Q 9.221538042363282 3.2910165375 9.092326542363281 3.2910165375 Q 8.963115042363281 3.2910165375 8.859903417363281 3.2358652875000002 M 9.22390166736328 3.0010785375 Q 9.27826504236328 2.9443515375000002 9.27826504236328 2.8387762875 Q 9.27826504236328 2.7332010375 9.225477417363281 2.6764740375000002 Q 9.17268979236328 2.6197470375 9.09547804236328 2.6197470375 Q 9.016690542363282 2.6197470375 8.964690792363282 2.6756861625 Q 8.912691042363281 2.7316252875 8.912691042363281 2.8387762875 Q 8.912691042363281 2.9443515375000002 8.963902917363281 3.0010785375 Q 9.015114792363281 3.0578055375 9.092326542363281 3.0578055375 Q 9.169538292363281 3.0578055375 9.22390166736328 3.0010785375 M 10.774902820913086 2.4897476625 Q 10.867084195913085 2.5898077875 10.867084195913085 2.7647160375 L 10.867084195913085 3.2784105375 L 10.599206695913086 3.2784105375 L 10.599206695913086 2.8009582875000003 Q 10.599206695913086 2.7127162875 10.553509945913085 2.6638680375000003 Q 10.507813195913085 2.6150197875 10.430601445913085 2.6150197875 Q 10.353389695913085 2.6150197875 10.307692945913086 2.6638680375000003 Q 10.261996195913085 2.7127162875 10.261996195913085 2.8009582875000003 L 10.261996195913085 3.2784105375 L 9.992542945913085 3.2784105375 L 9.992542945913085 2.3991420375 L 10.261996195913085 2.3991420375 L 10.261996195913085 2.5157475375000002 Q 10.302965695913086 2.4574447875 10.372298695913086 2.4235661625000002 Q 10.441631695913085 2.3896875375 10.528297945913085 2.3896875375 Q 10.682721445913085 2.3896875375 10.774902820913086 2.4897476625 M 11.504130344824219 3.2516227875 Q 11.414312594824219 3.2122290375 11.362312844824219 3.1436839125000002 Q 11.310313094824219 3.0751387875000002 11.304010094824218 2.9900482875 L 11.570311844824218 2.9900482875 Q 11.575039094824218 3.0357450375 11.612857094824218 3.0641085375 Q 11.650675094824217 3.0924720375000003 11.705826344824217 3.0924720375000003 Q 11.756250344824219 3.0924720375000003 11.783825969824218 3.0727751625 Q 11.811401594824218 3.0530782875 11.811401594824218 3.0215632875000002 Q 11.811401594824218 2.9837452875 11.772007844824218 2.9656241625 Q 11.732614094824218 2.9475030375 11.644372094824218 2.9254425375 Q 11.549827094824218 2.9033820375 11.486797094824219 2.8789579125 Q 11.423767094824218 2.8545337875000003 11.378070344824218 2.8017461625 Q 11.332373594824219 2.7489585375 11.332373594824219 2.6591407875 Q 11.332373594824219 2.5835047875 11.374130969824218 2.5212626625 Q 11.415888344824218 2.4590205375 11.497039469824218 2.4227782875 Q 11.578190594824218 2.3865360375 11.690068844824218 2.3865360375 Q 11.855522594824219 2.3865360375 11.950855469824218 2.4684750375 Q 12.046188344824218 2.5504140375 12.060370094824219 2.6859285375 L 11.811401594824218 2.6859285375 Q 11.805098594824218 2.6402317875000003 11.771219969824218 2.6134440375 Q 11.737341344824218 2.5866562875000003 11.682190094824218 2.5866562875000003 Q 11.634917594824218 2.5866562875000003 11.609705594824218 2.6047774125 Q 11.584493594824218 2.6228985375000002 11.584493594824218 2.6544135375 Q 11.584493594824218 2.6922315375 11.624675219824217 2.7111405375 Q 11.664856844824218 2.7300495375000002 11.749947344824218 2.7489585375 Q 11.847643844824217 2.7741705375 11.909098094824218 2.7985946625 Q 11.970552344824219 2.8230187875 12.017036969824218 2.8773821625 Q 12.063521594824218 2.9317455375000003 12.065097344824219 3.0231390375 Q 12.065097344824219 3.1003507875 12.021764219824219 3.1610171625000003 Q 11.978431094824218 3.2216835375 11.897279969824218 3.2563500375000003 Q 11.816128844824219 3.2910165375 11.708977844824219 3.2910165375 Q 11.593948094824219 3.2910165375 11.504130344824219 3.2516227875" fill="#000000" fill-rule="nonzero"></path></g></g><defs><clipPath id="SvgjsClipPath23687"><path d=" M -3.707932521004217 -0.5207808398586216 h 3.307932521004217 v 4.319972217217243 h -3.307932521004217 Z"></path></clipPath><clipPath id="SvgjsClipPath23685b9d1cc6e-3a52-4d7b-8b42-41db6b6eaf45"><path d=" M -3.707932521004217 -0.5207808398586216 L -0.3999999999999999 -0.5207808398586216 L -0.3999999999999999 3.7991913773586217 L -3.707932521004217 3.7991913773586217 Z"></path></clipPath><linearGradient id="gradient-029f5159-a17e-46c0-92e6-660a42981d7d_0" x1="0" x2="1" y1="0" y2="1"><stop stop-color="#e39c40" offset="0"></stop><stop stop-color="#c74846" offset="1"></stop></linearGradient><linearGradient id="gradient-029f5159-a17e-46c0-92e6-660a42981d7d_1" x1="0" x2="1" y1="0" y2="1"><stop stop-color="#d77743" offset="0"></stop><stop stop-color="#c13648" offset="1"></stop></linearGradient><linearGradient id="gradient-029f5159-a17e-46c0-92e6-660a42981d7d_2" x1="0" x2="1" y1="0" y2="1"><stop stop-color="#c64646" offset="0"></stop><stop stop-color="#bf2f49" offset="1"></stop></linearGradient><linearGradient id="gradient-029f5159-a17e-46c0-92e6-660a42981d7d_3" x1="0" x2="1" y1="0" y2="1"><stop stop-color="#cd5a45" offset="0"></stop><stop stop-color="#cc5545" offset="1"></stop></linearGradient><linearGradient id="gradient-029f5159-a17e-46c0-92e6-660a42981d7d_4" x1="0" x2="1" y1="0" y2="1"><stop stop-color="#d67343" offset="0"></stop><stop stop-color="#d26a44" offset="1"></stop></linearGradient><linearGradient id="gradient-029f5159-a17e-46c0-92e6-660a42981d7d_5" x1="0" x2="1" y1="0" y2="1"><stop stop-color="#d77743" offset="0"></stop><stop stop-color="#d16744" offset="1"></stop></linearGradient></defs></svg>